<?xml version="1.0" encoding="UTF-8"?>
<svg id="Layer_2" data-name="Layer 2" xmlns="http://www.w3.org/2000/svg" viewBox="0 0 83.37 16.34">
  <defs>
    <style>
      .cls-1, .cls-2 {
        fill: #76c043;
      }

      .cls-3 {
        letter-spacing: -.02em;
      }

      .cls-2 {
        font-family: AmericanTypewriter, 'American Typewriter';
        font-size: 12.75px;
      }
    </style>
  </defs>
  <g id="Layer_1-2" data-name="Layer 1">
    <g>
      <g>
        <path class="cls-1" d="m17.32,6.33s-.02-.12,0-.17c.15-.35.21-.71.15-1.09-.08-.54-.36-.94-.84-1.19-.16-.08-.33-.14-.5-.21.07-.62-.12-1.16-.56-1.6-.44-.44-.99-.6-1.61-.54-.07-.12-.13-.24-.2-.36-.26-.44-.62-.74-1.11-.89-.4-.12-.79-.06-1.17.08-.1.04-.17.02-.25-.04-.15-.1-.31-.2-.48-.25-.43-.14-.84-.04-1.21.21-.16.11-.27.1-.44,0-.39-.26-.82-.36-1.28-.2-.25.09-.49.24-.73.38-.06.03-.1.05-.16.02-.14-.07-.29-.14-.44-.18-.51-.14-.99-.08-1.43.2-.33.2-.59.48-.77.81-.1.19-.24.27-.45.25-.1,0-.21,0-.32.02-.9.2-1.58.95-1.58,2.01,0,.1-.03.15-.13.18-.53.15-.9.47-1.1.99-.13.34-.14.68-.04,1.01.08.27,0,.41-.2.57C.12,6.62-.01,7.03,0,7.48c0,.29.13.55.29.79.06.08.06.15,0,.23-.16.24-.26.51-.27.81-.01.34.07.67.3.94.16.18.35.32.54.47.09.07.15.12.12.27-.04.19-.03.39,0,.58.14.81.79,1.63,1.76,1.68.13,0,.23.06.33.17.42.46.94.69,1.57.53.21-.05.42-.15.63-.22,0,.49,0,1,0,1.51,0,.2.08.33.25.42.17.08.32.04.45-.09.35-.37.69-.74,1.02-1.12.31-.37.61-.75.91-1.12.63.26.73.29,1.27.23.78-.09,1.4-.43,1.73-1.19.05-.11.1-.13.21-.1.25.07.51.06.77,0,.55-.14.93-.48,1.17-.99.02-.03.07-.08.09-.08.31.07.6-.02.89-.13.34-.13.6-.36.7-.72.04-.14.06-.28.08-.39.24-.03.46-.03.67-.07,1.05-.24,1.66-.95,1.96-1.93.16-.52.11-1.06-.11-1.58ZM11.37,1.7c.07-.2.14-.39.2-.59.06-.2.22-.3.41-.32.67-.07,1.1.24,1.37.88-.11,0-.21,0-.31.03-.41.08-.71.33-.94.66-.12.18-.27.26-.49.24-.17-.02-.34,0-.54,0,.11-.31.21-.6.31-.89Zm-5.72-.87c.2-.05.43-.03.65,0,.2.02.28.17.33.36.12.44.27.87.41,1.3,0,.02,0,.05.02.11-.12,0-.23,0-.33.02-.31.04-.56-.06-.79-.26-.2-.17-.41-.32-.63-.46-.13-.09-.29-.14-.43-.21-.03-.01-.06-.03-.1-.06.18-.4.46-.69.88-.8Zm-3.99,3.57c.24-.15.39-.13.56,0,.26.21.54.41.82.63-.34.3-.64.58-.97.85-.2.17-.44.09-.67.07-.04,0-.08-.07-.1-.11-.28-.49-.12-1.15.36-1.45Zm3.61,8.45c-.02.21-.21.34-.39.43-.44.21-.94.17-1.33-.18-.01-.01-.02-.03-.05-.07.42-.24.72-.56.61-1.1h1.17c0,.31.02.61,0,.92Zm10.32-3.63c-.44.16-.86.15-1.23-.19-.15-.14-.23-.32-.23-.53,0-.25,0-.49,0-.74,0-.21-.1-.3-.28-.3-.19,0-.27.09-.27.31,0,.25,0,.49,0,.75-.07,0-.12.01-.18.01-.45,0-.91,0-1.36,0-.21,0-.34.1-.34.27,0,.17.15.31.35.31.45,0,.91,0,1.36,0,.21,0,.37.04.49.23.06.11.16.2.23.3.16.25.13.5-.08.7-.2.19-.43.25-.7.18-.09-.02-.14-.07-.13-.17,0-.19,0-.38,0-.56,0-.23-.17-.35-.39-.3-.13.03-.16.13-.16.24,0,.26-.02.51,0,.77.03.43-.2.72-.51.96-.2.16-.44.26-.71.25-.2,0-.37-.08-.49-.24-.05-.07-.04-.2-.04-.3,0-.2-.15-.34-.34-.33-.16.01-.3.15-.29.31,0,.1.02.2.05.29.18.5.07.87-.36,1.18-.27.19-.58.28-.91.33-.34.05-.63-.05-.92-.19-.11-.05-.17-.12-.15-.25,0-.04,0-.09,0-.13,0-.19-.1-.3-.26-.31-.16,0-.31.12-.32.29,0,.15.01.31,0,.46-.02.12-.05.25-.12.34-.45.56-.91,1.1-1.37,1.65-.01.01-.03.02-.06.05,0-.04-.02-.07-.02-.1,0-.58.02-1.17.03-1.75,0-.48,0-.97,0-1.45.01-.51-.02-1.01-.39-1.47.27,0,.5,0,.74,0,.58,0,1.15,0,1.73,0,.24,0,.35-.12.33-.33-.01-.11-.07-.17-.17-.19-.09-.02-.17-.03-.26-.03-1,0-2,0-3,0-.14,0-.28,0-.36.14-.1.17-.04.36.17.42.32.1.46.34.54.62.04.14.05.29.05.44,0,.05-.07.13-.11.13-.33.01-.66,0-1.01,0,0-.16,0-.31,0-.46,0-.21-.12-.33-.3-.32-.15,0-.25.1-.25.24,0,.17,0,.35,0,.54-.06,0-.11,0-.16,0-.32,0-.65,0-.97,0-.22,0-.32.1-.32.31,0,.14.13.25.31.25.32,0,.64,0,.96,0,.05,0,.1,0,.15,0,.05.47-.41.86-.87.75-.62-.14-.97-.56-1.12-1.14-.07-.29-.06-.6.23-.85.6-.53,1.16-1.1,1.74-1.64.07-.07.2-.11.3-.11.43-.01.85,0,1.28,0,.24,0,.36-.18.27-.39-.05-.11-.14-.16-.25-.16-.44,0-.88.01-1.32.01-.03,0-.08-.06-.08-.09-.02-.18-.02-.36-.04-.54,0-.04,0-.09-.04-.12-.1-.1-.24-.1-.35-.05-.07.03-.13.14-.14.23-.02.19,0,.39,0,.58,0,.13-.04.24-.14.34-.51.48-1.01.97-1.52,1.46-.14.13-.24.14-.4.04-.32-.2-.54-.46-.52-.85,0-.24.11-.46.3-.62.04-.03.1-.04.15-.04.46,0,.92,0,1.38-.01.2,0,.27-.09.26-.31,0-.17-.07-.23-.26-.23-.38,0-.76-.02-1.13,0-.47.03-.79-.52-.71-.87.07-.29.22-.5.46-.67.15-.11.32-.14.5-.11.05.14.08.29.14.43.1.22.28.34.52.35.43.01.86.02,1.29.02.21,0,.58-.29.63-.49.03-.12.01-.24-.1-.32-.11-.08-.23-.07-.34,0-.01,0-.03.01-.03.03-.16.23-.39.23-.63.22-.24-.01-.47,0-.71,0-.05,0-.1-.03-.16-.05.02-.05.03-.12.07-.16.18-.17.37-.33.55-.49.36-.31.71-.63,1.07-.93.07-.06.17-.09.26-.1.15-.02.3,0,.45-.02.24-.03.27-.15.28-.32.01-.44,0-.89,0-1.33,0-.22-.1-.3-.3-.3-.17,0-.25.08-.25.25,0,.34,0,.68,0,1.01,0,.11-.02.17-.15.16-.16-.01-.32,0-.5,0,0-.21,0-.42,0-.62,0-.13,0-.25-.01-.38-.02-.17-.11-.23-.3-.23-.14,0-.25.11-.25.26,0,.25,0,.49,0,.74-.25,0-.54-.29-.55-.53-.04-.86.47-1.4,1.14-1.58.12-.03.25-.02.37-.02.03,0,.06.03.08.06.14.22.39.32.61.12.07-.07.15-.04.22.01.29.23.58.45.87.67.18.14.37.21.61.2.51-.02,1.02-.02,1.54-.02.21,0,.34-.11.34-.29,0-.17-.11-.29-.29-.3-.12,0-.26.02-.34-.04-.07-.06-.07-.21-.11-.32-.1-.3-.19-.61-.29-.91,0-.03-.01-.07,0-.1.2-.56,1.05-.81,1.53-.46.22.16.34.37.34.65,0,3.14,0,6.29,0,9.43,0,.31-.23.54-.57.53-.33-.01-.66-.02-1-.03-.07,0-.14,0-.2,0-.18,0-.28.08-.3.21-.02.13.09.31.23.33.17.02.34.02.51.02.24,0,.47,0,.71-.01.15,0,.3-.01.45-.02.37-.02.7-.47.69-.84,0-.16,0-.32,0-.49.04,0,.07-.01.11-.01.57,0,1.13,0,1.7,0,.25,0,.35-.1.34-.35,0-.15-.17-.26-.37-.22-.58.11-1.16.04-1.75.05,0,0-.02-.02-.02-.03,0-1.42,0-2.85,0-4.27,0-1.49,0-2.99,0-4.48,0-.35.26-.53.5-.6.31-.09.56.01.79.23.08.07.09.15.06.23-.15.45-.3.9-.46,1.35-.02.06-.08.11-.13.15-.19.12-.24.2-.21.36.03.13.17.25.35.25.47,0,.94,0,1.41,0,.22,0,.39-.12.49-.32.16-.3.39-.52.74-.59.12-.02.24-.03.35.06.14.11.37.09.47-.06.12-.18.28-.17.44-.15.48.06.93.49,1.07.91.06.18.08.37.09.56.01.27-.25.58-.51.65-.08.02-.08,0-.08-.07,0-.25,0-.5-.02-.75,0-.14-.13-.19-.34-.18-.12,0-.2.09-.2.24,0,.24,0,.48,0,.72,0,.07,0,.14,0,.23h-.94c0-.16,0-.32,0-.48,0-.22,0-.43-.02-.65,0-.18-.13-.3-.27-.3-.15,0-.26.14-.26.31,0,.45,0,.9,0,1.35,0,.21.13.34.34.34.26,0,.52,0,.78,0,.15,0,.28.05.39.14.49.42.98.83,1.47,1.24.07.06.14.12.18.2.05.08.03.15-.09.15-.36,0-.72,0-1.07,0-.06,0-.13-.05-.19-.09-.09-.08-.17-.17-.26-.25-.13-.12-.33-.12-.43-.01-.1.11-.09.3.04.42.16.15.32.29.49.43.06.05.16.07.24.08.32.01.64.02.95.02.14,0,.29-.01.43-.03.22-.03.38-.23.42-.52,0-.05.02-.11.04-.17.2.13.21.34.22.52.06.86-.56,1.82-1.36,2.1Zm1.21-3.34c-.08.16-.3.19-.44.08-.42-.34-.83-.68-1.26-1.04.05-.04.08-.06.11-.08.18-.12.37-.24.55-.37.23-.19.42-.22.67-.05.34.23.58.54.52.98-.02.17-.08.34-.15.49Z"/>
        <path class="cls-1" d="m8.73,8.69c.02-.18-.04-.27-.21-.31-.06-.01-.12-.02-.19-.02-.36,0-.73,0-1.09,0,0,0-.02-.02-.02-.03v-1.24c.06,0,.12,0,.17,0,.15-.02.26-.14.26-.29,0-.2-.04-.26-.24-.28-.04,0-.09,0-.13,0-.3,0-.59,0-.88,0-.17,0-.34,0-.51.02-.32.05-.58-.02-.76-.31-.13-.21-.27-.41-.42-.61-.05-.06-.13-.12-.2-.14-.12-.03-.23,0-.3.12-.07.12-.06.24.02.35.22.3.44.59.65.89.12.17.27.24.48.24.3,0,.61,0,.91,0,.12,0,.24,0,.36,0,0,.5,0,.97,0,1.44,0,.27.13.4.4.41.48,0,.96,0,1.44,0,.14,0,.25-.1.26-.22Z"/>
        <path class="cls-1" d="m13.86,5.25c-.17-.06-.28-.02-.39.15-.19.3-.37.6-.54.91-.08.15-.18.21-.36.21-.55,0-1.1,0-1.65,0-.29,0-.39.11-.39.4,0,.61-.01,1.23-.02,1.84,0,.25.1.39.3.4.19,0,.27-.12.27-.39,0-.46,0-.93,0-1.39,0-.09,0-.18,0-.29.07,0,.12,0,.17,0,.51,0,1.02,0,1.52,0,.21,0,.36-.06.48-.24.25-.39.51-.79.76-1.18.1-.16.03-.34-.15-.4Z"/>
        <path class="cls-1" d="m5.92,5.43c.65,0,1.3,0,1.94,0,.14,0,.27-.03.34-.17.07-.13.01-.24-.06-.35-.21-.31-.41-.63-.62-.94-.04-.06-.08-.12-.12-.18-.1-.12-.28-.17-.4-.11-.12.06-.18.21-.12.38.05.13.14.24.21.36.09.14.18.28.28.45-.54,0-1.02,0-1.5,0-.07,0-.18.03-.21.08-.05.08-.07.2-.05.29.04.14.17.17.3.17Z"/>
        <path class="cls-1" d="m11.89,5.43c.25,0,.37-.21.27-.42-.06-.11-.15-.14-.27-.14-.26,0-.53,0-.83,0,.05-.09.08-.14.11-.19.12-.19.25-.38.37-.57.1-.17.07-.33-.08-.41-.15-.09-.31-.04-.42.13-.22.36-.44.72-.66,1.09-.02.04-.05.08-.06.13-.08.2.03.38.25.39.44,0,.88.01,1.32,0Z"/>
        <path class="cls-1" d="m15.93,8.16c-.16,0-.33,0-.49,0h0c-.17,0-.35,0-.52,0-.15,0-.26.13-.26.27,0,.15.1.27.26.28.34,0,.68,0,1.03-.01.16,0,.26-.13.25-.28,0-.14-.11-.25-.26-.25Z"/>
      </g>
      <text class="cls-2" transform="translate(18.97 11.69)"><tspan x="0" y="0">Summar</tspan><tspan class="cls-3" x="52.9" y="0">l</tspan><tspan x="56.56" y="0">y</tspan></text>
    </g>
  </g>
</svg>